<?xml version="1.0" encoding="UTF-8" standalone="no"?>
<!-- Created with Inkscape (http://www.inkscape.org/) -->

<svg
   width="60.092731"
   height="32"
   viewBox="0 0 15.899535 8.466667"
   version="1.1"
   id="svg946"
   inkscape:version="1.1.1 (3bf5ae0d25, 2021-09-20)"
   sodipodi:docname="fnelin_logo.svg"
   xmlns:inkscape="http://www.inkscape.org/namespaces/inkscape"
   xmlns:sodipodi="http://sodipodi.sourceforge.net/DTD/sodipodi-0.dtd"
   xmlns="http://www.w3.org/2000/svg"
   xmlns:svg="http://www.w3.org/2000/svg">
  <sodipodi:namedview
     id="namedview948"
     pagecolor="#ffffff"
     bordercolor="#666666"
     borderopacity="1.0"
     inkscape:pageshadow="2"
     inkscape:pageopacity="0.0"
     inkscape:pagecheckerboard="0"
     inkscape:document-units="mm"
     showgrid="false"
     inkscape:zoom="11.329782"
     inkscape:cx="31.200952"
     inkscape:cy="31.068558"
     inkscape:window-width="1840"
     inkscape:window-height="1244"
     inkscape:window-x="1397"
     inkscape:window-y="526"
     inkscape:window-maximized="0"
     inkscape:current-layer="layer1"
     units="px"
     width="64px"
     height="52.4702px" />
  <defs
     id="defs943" />
  <g
     inkscape:label="Layer 1"
     inkscape:groupmode="layer"
     id="layer1"
     transform="translate(-46.241999,-12.095283)">
    <g
       id="g66103"
       transform="matrix(0.40191121,0,0,0.40266666,20.541911,0.22271365)">
      <path
         id="rect17159"
         style="fill:#f2f2f2;fill-opacity:0.5;fill-rule:evenodd;stroke:#000000;stroke-width:0.0997765"
         d="m 67.217485,29.534746 h 33.014235 c 1.78549,0 3.2229,1.437416 3.2229,3.222906 v 14.480902 c 0,1.78549 -1.43741,3.222906 -3.2229,3.222906 H 67.217485 c -1.78549,0 -3.222906,-1.437416 -3.222906,-3.222906 V 32.757652 c 0,-1.78549 1.437416,-3.222906 3.222906,-3.222906 z" />
      <g
         aria-label="FNelin"
         id="text18802"
         style="font-size:10.5833px;line-height:1.25;stroke-width:0.264583">
        <path
           d="m 73.208482,32.414434 h -3.891223 v 2.170403 h 3.343455 v 0.909502 h -3.343455 v 3.705189 h -1.02319 v -7.694597 h 4.914413 z"
           style="font-family:Verdana;-inkscape-font-specification:Verdana"
           id="path68340" />
        <path
           d="m 80.24679,39.199528 h -1.266069 l -3.648344,-6.883279 v 6.883279 h -0.956011 v -7.694597 h 1.586461 l 3.327952,6.283835 v -6.283835 h 0.956011 z"
           style="font-family:Verdana;-inkscape-font-specification:Verdana"
           id="path68342" />
        <path
           d="m 87.047387,36.414177 h -4.252956 q 0,0.532265 0.160196,0.930173 0.160196,0.392739 0.439248,0.645953 0.268717,0.248046 0.635618,0.372069 0.37207,0.124023 0.816485,0.124023 0.58911,0 1.183387,-0.232543 0.599445,-0.237711 0.852658,-0.465086 h 0.05168 v 1.059363 q -0.490925,0.206705 -1.00252,0.346231 -0.511595,0.139526 -1.074866,0.139526 -1.436601,0 -2.24275,-0.775144 -0.80615,-0.780312 -0.80615,-2.211744 0,-1.41593 0.769976,-2.247918 0.775144,-0.831988 2.036045,-0.831988 1.167884,0 1.798334,0.682127 0.635618,0.682127 0.635618,1.93786 z m -0.945675,-0.744138 q -0.0052,-0.764809 -0.387572,-1.183387 -0.377237,-0.418578 -1.152381,-0.418578 -0.780312,0 -1.245398,0.459919 -0.459919,0.459919 -0.52193,1.142046 z"
           style="font-family:Verdana;-inkscape-font-specification:Verdana"
           id="path68344" />
        <path
           d="M 89.50201,39.199528 H 88.530496 V 31.1587 h 0.971514 z"
           style="font-family:Verdana;-inkscape-font-specification:Verdana"
           id="path68346" />
        <path
           d="m 92.468229,32.460942 h -1.095537 v -1.007687 h 1.095537 z m -0.06201,6.738586 h -0.971514 v -5.772239 h 0.971514 z"
           style="font-family:Verdana;-inkscape-font-specification:Verdana"
           id="path68348" />
        <path
           d="m 99.155137,39.199528 h -0.971514 v -3.286611 q 0,-0.397907 -0.04651,-0.744138 -0.04651,-0.351399 -0.170531,-0.547769 -0.129191,-0.21704 -0.37207,-0.320392 -0.242878,-0.108521 -0.63045,-0.108521 -0.397907,0 -0.831988,0.19637 -0.434081,0.19637 -0.831988,0.50126 v 4.309801 h -0.971514 v -5.772239 h 0.971514 v 0.640785 q 0.454751,-0.377236 0.940508,-0.589109 0.485757,-0.211873 0.997352,-0.211873 0.935341,0 1.426265,0.563272 0.490925,0.563271 0.490925,1.622634 z"
           style="font-family:Verdana;-inkscape-font-specification:Verdana"
           id="path68350" />
      </g>
      <g
         aria-label="&lt; / &gt;"
         id="text31784"
         style="font-size:10.5833px;line-height:1.25;stroke-width:0.264583">
        <path
           d="m 77.456272,43.251935 -5.332991,1.896519 5.332991,1.886184 v 0.940508 L 70.831374,45.5722 v -0.857826 l 6.624898,-2.402947 z"
           style="fill:#800000"
           id="path68353" />
        <path
           d="m 84.628937,40.745636 h 0.878497 l -2.687166,8.697116 h -0.878496 z"
           style="fill:#50162d"
           id="path68355" />
        <path
           d="m 89.992934,43.251935 v -0.940508 l 6.624898,2.402947 V 45.5722 l -6.624898,2.402946 v -0.940508 l 5.322656,-1.886184 z"
           style="fill:#003380"
           id="path68357" />
      </g>
    </g>
  </g>
</svg>
